<svg xmlns="http://www.w3.org/2000/svg" width="400" height="400" viewBox="0 0 400 400">
  <rect width="400" height="400" fill="#ffffff" rx="12"/>
  <rect x="24" y="24" width="352" height="352" fill="none" stroke="#0a0a0a" stroke-width="4"/>

  <!-- top-left finder -->
  <rect x="40" y="40" width="80" height="80" fill="#0a0a0a"/>
  <rect x="56" y="56" width="48" height="48" fill="#ffffff"/>
  <rect x="70" y="70" width="20" height="20" fill="#8fc93e"/>

  <!-- top-right finder -->
  <rect x="280" y="40" width="80" height="80" fill="#0a0a0a"/>
  <rect x="296" y="56" width="48" height="48" fill="#ffffff"/>
  <rect x="310" y="70" width="20" height="20" fill="#8fc93e"/>

  <!-- bottom-left finder -->
  <rect x="40" y="280" width="80" height="80" fill="#0a0a0a"/>
  <rect x="56" y="296" width="48" height="48" fill="#ffffff"/>
  <rect x="70" y="310" width="20" height="20" fill="#8fc93e"/>

  <!-- pseudo-random data modules -->
  <g fill="#0a0a0a">
    <rect x="150" y="48" width="16" height="16"/>
    <rect x="182" y="48" width="16" height="16"/>
    <rect x="214" y="64" width="16" height="16"/>
    <rect x="150" y="80" width="16" height="16"/>
    <rect x="246" y="48" width="16" height="16"/>
    <rect x="48" y="150" width="16" height="16"/>
    <rect x="48" y="182" width="16" height="16"/>
    <rect x="80" y="198" width="16" height="16"/>
    <rect x="150" y="150" width="16" height="16"/>
    <rect x="182" y="166" width="16" height="16"/>
    <rect x="214" y="150" width="16" height="16"/>
    <rect x="246" y="182" width="16" height="16"/>
    <rect x="150" y="198" width="16" height="16"/>
    <rect x="182" y="214" width="16" height="16"/>
    <rect x="278" y="150" width="16" height="16"/>
    <rect x="310" y="166" width="16" height="16"/>
    <rect x="342" y="150" width="16" height="16"/>
    <rect x="278" y="198" width="16" height="16"/>
    <rect x="150" y="246" width="16" height="16"/>
    <rect x="182" y="262" width="16" height="16"/>
    <rect x="214" y="246" width="16" height="16"/>
    <rect x="246" y="278" width="16" height="16"/>
    <rect x="150" y="310" width="16" height="16"/>
    <rect x="182" y="342" width="16" height="16"/>
    <rect x="214" y="310" width="16" height="16"/>
    <rect x="246" y="326" width="16" height="16"/>
    <rect x="278" y="278" width="16" height="16"/>
    <rect x="310" y="310" width="16" height="16"/>
    <rect x="342" y="278" width="16" height="16"/>
    <rect x="278" y="342" width="16" height="16"/>
  </g>

  <g fill="#8fc93e">
    <rect x="166" y="64" width="16" height="16"/>
    <rect x="230" y="80" width="16" height="16"/>
    <rect x="64" y="166" width="16" height="16"/>
    <rect x="198" y="182" width="16" height="16"/>
    <rect x="326" y="182" width="16" height="16"/>
    <rect x="166" y="278" width="16" height="16"/>
    <rect x="230" y="294" width="16" height="16"/>
    <rect x="294" y="326" width="16" height="16"/>
  </g>
</svg>
